<mxfile host="Electron" agent="Mozilla/5.0 (Windows NT 10.0; Win64; x64) AppleWebKit/537.36 (KHTML, like Gecko) draw.io/26.0.7 Chrome/128.0.6613.186 Electron/32.2.5 Safari/537.36" version="26.0.7">
  <diagram id="C5RBs43oDa-KdzZeNtuy" name="Page-1">
    <mxGraphModel dx="358" dy="173" grid="1" gridSize="10" guides="1" tooltips="1" connect="1" arrows="1" fold="1" page="1" pageScale="1" pageWidth="827" pageHeight="1169" background="none" math="0" shadow="0">
      <root>
        <mxCell id="WIyWlLk6GJQsqaUBKTNV-0" />
        <mxCell id="WIyWlLk6GJQsqaUBKTNV-1" parent="WIyWlLk6GJQsqaUBKTNV-0" />
        <mxCell id="NgZOJPg8MMw1PAeC98eF-6" value="" style="edgeStyle=orthogonalEdgeStyle;rounded=0;orthogonalLoop=1;jettySize=auto;html=1;" parent="WIyWlLk6GJQsqaUBKTNV-1" source="Pc5RLh0CdUxKufG2swuO-0" target="NgZOJPg8MMw1PAeC98eF-5" edge="1">
          <mxGeometry relative="1" as="geometry" />
        </mxCell>
        <mxCell id="Pc5RLh0CdUxKufG2swuO-0" value="&lt;font&gt;首页&lt;/font&gt;&lt;div&gt;&lt;font&gt;（动画①）&lt;/font&gt;&lt;/div&gt;" style="rounded=1;whiteSpace=wrap;html=1;fontFamily=LXGW WenKai Mono;fillColor=#d5e8d4;strokeColor=#82b366;fontSize=13;" parent="WIyWlLk6GJQsqaUBKTNV-1" vertex="1">
          <mxGeometry x="360" width="80" height="40" as="geometry" />
        </mxCell>
        <mxCell id="Pc5RLh0CdUxKufG2swuO-4" style="edgeStyle=orthogonalEdgeStyle;rounded=1;orthogonalLoop=1;jettySize=auto;html=1;entryX=0;entryY=0.5;entryDx=0;entryDy=0;fontFamily=LXGW WenKai Mono;fontSize=13;fontColor=default;exitX=0.998;exitY=0.141;exitDx=0;exitDy=0;exitPerimeter=0;" parent="WIyWlLk6GJQsqaUBKTNV-1" source="Pc5RLh0CdUxKufG2swuO-8" target="Pc5RLh0CdUxKufG2swuO-0" edge="1">
          <mxGeometry relative="1" as="geometry">
            <mxPoint x="340" y="20.000000000000057" as="sourcePoint" />
            <Array as="points">
              <mxPoint x="340" y="20" />
            </Array>
          </mxGeometry>
        </mxCell>
        <mxCell id="Pc5RLh0CdUxKufG2swuO-12" style="edgeStyle=orthogonalEdgeStyle;rounded=1;orthogonalLoop=1;jettySize=auto;html=1;entryX=0.5;entryY=0;entryDx=0;entryDy=0;fontFamily=LXGW WenKai Mono;fontSize=12;fontColor=default;" parent="WIyWlLk6GJQsqaUBKTNV-1" source="Pc5RLh0CdUxKufG2swuO-7" target="Pc5RLh0CdUxKufG2swuO-11" edge="1">
          <mxGeometry relative="1" as="geometry" />
        </mxCell>
        <mxCell id="Pc5RLh0CdUxKufG2swuO-13" value="db path" style="edgeLabel;html=1;align=center;verticalAlign=middle;resizable=0;points=[];rounded=1;strokeColor=default;fontFamily=LXGW WenKai Mono;fontSize=12;fontColor=default;fillColor=default;" parent="Pc5RLh0CdUxKufG2swuO-12" vertex="1" connectable="0">
          <mxGeometry x="-0.3048" y="-1" relative="1" as="geometry">
            <mxPoint x="1" as="offset" />
          </mxGeometry>
        </mxCell>
        <mxCell id="Pc5RLh0CdUxKufG2swuO-70" value="" style="edgeStyle=orthogonalEdgeStyle;rounded=1;orthogonalLoop=1;jettySize=auto;html=1;fontFamily=LXGW WenKai Mono;fontSize=12;fontColor=default;" parent="WIyWlLk6GJQsqaUBKTNV-1" source="Pc5RLh0CdUxKufG2swuO-7" target="Pc5RLh0CdUxKufG2swuO-69" edge="1">
          <mxGeometry relative="1" as="geometry" />
        </mxCell>
        <mxCell id="Pc5RLh0CdUxKufG2swuO-75" value="文件夹" style="edgeLabel;html=1;align=center;verticalAlign=middle;resizable=0;points=[];rounded=1;strokeColor=default;fontFamily=LXGW WenKai Mono;fontSize=12;fontColor=default;fillColor=default;" parent="Pc5RLh0CdUxKufG2swuO-70" vertex="1" connectable="0">
          <mxGeometry x="0.33" y="-1" relative="1" as="geometry">
            <mxPoint x="13" y="1" as="offset" />
          </mxGeometry>
        </mxCell>
        <mxCell id="Pc5RLh0CdUxKufG2swuO-77" value="" style="edgeStyle=orthogonalEdgeStyle;rounded=1;orthogonalLoop=1;jettySize=auto;html=1;fontFamily=LXGW WenKai Mono;fontSize=12;fontColor=default;" parent="WIyWlLk6GJQsqaUBKTNV-1" source="Pc5RLh0CdUxKufG2swuO-7" edge="1">
          <mxGeometry relative="1" as="geometry">
            <mxPoint x="500" y="185" as="targetPoint" />
          </mxGeometry>
        </mxCell>
        <mxCell id="Pc5RLh0CdUxKufG2swuO-78" value="qvw文件" style="edgeLabel;html=1;align=center;verticalAlign=middle;resizable=0;points=[];rounded=1;strokeColor=default;fontFamily=LXGW WenKai Mono;fontSize=12;fontColor=default;fillColor=default;" parent="Pc5RLh0CdUxKufG2swuO-77" vertex="1" connectable="0">
          <mxGeometry x="-0.6571" y="-1" relative="1" as="geometry">
            <mxPoint x="10" y="-1" as="offset" />
          </mxGeometry>
        </mxCell>
        <mxCell id="Pc5RLh0CdUxKufG2swuO-7" value="判断选择&lt;div&gt;的文件类型&lt;/div&gt;" style="rhombus;whiteSpace=wrap;html=1;rounded=1;strokeColor=default;align=center;verticalAlign=middle;fontFamily=LXGW WenKai Mono;fontSize=12;fontColor=default;fillColor=default;" parent="WIyWlLk6GJQsqaUBKTNV-1" vertex="1">
          <mxGeometry x="360" y="145" width="80" height="80" as="geometry" />
        </mxCell>
        <mxCell id="Pc5RLh0CdUxKufG2swuO-8" value="动画：&lt;div&gt;①随机浮动圆圈（参考Rizline）&lt;/div&gt;&lt;div&gt;②完成后向四周散开&lt;/div&gt;" style="shape=document;whiteSpace=wrap;html=1;boundedLbl=1;rounded=1;strokeColor=default;align=center;verticalAlign=middle;fontFamily=LXGW WenKai Mono;fontSize=12;fontColor=default;fillColor=default;" parent="WIyWlLk6GJQsqaUBKTNV-1" vertex="1">
          <mxGeometry x="220" y="10" width="120" height="80" as="geometry" />
        </mxCell>
        <mxCell id="NgZOJPg8MMw1PAeC98eF-18" value="" style="edgeStyle=orthogonalEdgeStyle;rounded=0;orthogonalLoop=1;jettySize=auto;html=1;" parent="WIyWlLk6GJQsqaUBKTNV-1" source="Pc5RLh0CdUxKufG2swuO-11" target="NgZOJPg8MMw1PAeC98eF-17" edge="1">
          <mxGeometry relative="1" as="geometry" />
        </mxCell>
        <mxCell id="Pc5RLh0CdUxKufG2swuO-11" value="跳转数据库&lt;span style=&quot;background-color: transparent; color: light-dark(rgb(0, 0, 0), rgb(255, 255, 255));&quot;&gt;选项&lt;/span&gt;" style="rounded=1;whiteSpace=wrap;html=1;fontFamily=LXGW WenKai Mono;fontSize=13;" parent="WIyWlLk6GJQsqaUBKTNV-1" vertex="1">
          <mxGeometry x="340" y="260" width="120" height="30" as="geometry" />
        </mxCell>
        <mxCell id="Pc5RLh0CdUxKufG2swuO-14" value="数据库选项" style="swimlane;horizontal=0;whiteSpace=wrap;html=1;rounded=1;strokeColor=default;align=center;verticalAlign=middle;fontFamily=LXGW WenKai Mono;fontSize=12;fontColor=default;fillColor=default;" parent="WIyWlLk6GJQsqaUBKTNV-1" vertex="1">
          <mxGeometry x="215" y="306" width="375" height="254" as="geometry">
            <mxRectangle x="215" y="306" width="40" height="90" as="alternateBounds" />
          </mxGeometry>
        </mxCell>
        <mxCell id="Pc5RLh0CdUxKufG2swuO-45" value="" style="group;fontSize=10;" parent="Pc5RLh0CdUxKufG2swuO-14" vertex="1" connectable="0">
          <mxGeometry x="75" y="35" width="300" height="50" as="geometry" />
        </mxCell>
        <mxCell id="Pc5RLh0CdUxKufG2swuO-38" style="edgeStyle=orthogonalEdgeStyle;rounded=1;orthogonalLoop=1;jettySize=auto;html=1;entryX=1;entryY=0.5;entryDx=0;entryDy=0;fontFamily=LXGW WenKai Mono;fontSize=10;fontColor=default;exitX=0.035;exitY=0.483;exitDx=0;exitDy=0;exitPerimeter=0;" parent="Pc5RLh0CdUxKufG2swuO-45" source="Pc5RLh0CdUxKufG2swuO-42" target="Pc5RLh0CdUxKufG2swuO-43" edge="1">
          <mxGeometry relative="1" as="geometry" />
        </mxCell>
        <mxCell id="Pc5RLh0CdUxKufG2swuO-39" value="F" style="edgeLabel;html=1;align=center;verticalAlign=middle;resizable=0;points=[];rounded=1;strokeColor=default;fontFamily=LXGW WenKai Mono;fontSize=10;fontColor=default;fillColor=default;" parent="Pc5RLh0CdUxKufG2swuO-38" vertex="1" connectable="0">
          <mxGeometry x="-0.3785" relative="1" as="geometry">
            <mxPoint x="-6" y="1" as="offset" />
          </mxGeometry>
        </mxCell>
        <mxCell id="Pc5RLh0CdUxKufG2swuO-40" style="edgeStyle=orthogonalEdgeStyle;rounded=1;orthogonalLoop=1;jettySize=auto;html=1;exitX=0.958;exitY=0.501;exitDx=0;exitDy=0;entryX=0;entryY=0.5;entryDx=0;entryDy=0;fontFamily=LXGW WenKai Mono;fontSize=10;fontColor=default;exitPerimeter=0;" parent="Pc5RLh0CdUxKufG2swuO-45" source="Pc5RLh0CdUxKufG2swuO-42" target="NgZOJPg8MMw1PAeC98eF-23" edge="1">
          <mxGeometry relative="1" as="geometry">
            <mxPoint x="179" y="31" as="targetPoint" />
          </mxGeometry>
        </mxCell>
        <mxCell id="Pc5RLh0CdUxKufG2swuO-41" value="T" style="edgeLabel;html=1;align=center;verticalAlign=middle;resizable=0;points=[];rounded=1;strokeColor=default;fontFamily=LXGW WenKai Mono;fontSize=10;fontColor=default;fillColor=default;" parent="Pc5RLh0CdUxKufG2swuO-40" vertex="1" connectable="0">
          <mxGeometry x="-0.037" relative="1" as="geometry">
            <mxPoint as="offset" />
          </mxGeometry>
        </mxCell>
        <mxCell id="Pc5RLh0CdUxKufG2swuO-42" value="&lt;font&gt;数据库&lt;/font&gt;&lt;div&gt;&lt;font&gt;&amp;nbsp;去头？&lt;/font&gt;&lt;/div&gt;" style="rhombus;whiteSpace=wrap;html=1;rounded=1;strokeColor=default;align=center;verticalAlign=middle;fontFamily=LXGW WenKai Mono;fontSize=10;fontColor=default;fillColor=default;" parent="Pc5RLh0CdUxKufG2swuO-45" vertex="1">
          <mxGeometry x="65" y="6" width="90" height="50" as="geometry" />
        </mxCell>
        <mxCell id="Pc5RLh0CdUxKufG2swuO-43" value="&lt;span&gt;去头(Temp)&lt;/span&gt;" style="rounded=1;whiteSpace=wrap;html=1;fontFamily=LXGW WenKai Mono;fontSize=10;" parent="Pc5RLh0CdUxKufG2swuO-45" vertex="1">
          <mxGeometry y="13.5" width="30" height="35" as="geometry" />
        </mxCell>
        <mxCell id="NgZOJPg8MMw1PAeC98eF-23" value="&lt;font style=&quot;font-size: 9px;&quot;&gt;&lt;span style=&quot;font-family: &amp;quot;LXGW WenKai Mono&amp;quot;;&quot;&gt;要求用户提供&lt;/span&gt;&lt;span style=&quot;color: light-dark(rgb(0, 0, 0), rgb(255, 255, 255)); font-family: &amp;quot;LXGW WenKai Mono&amp;quot;; background-color: transparent;&quot;&gt;解密参数&lt;/span&gt;&lt;/font&gt;" style="shape=parallelogram;perimeter=parallelogramPerimeter;whiteSpace=wrap;html=1;fixedSize=1;size=20;fontSize=11;" parent="Pc5RLh0CdUxKufG2swuO-45" vertex="1">
          <mxGeometry x="170" y="21" width="120" height="20" as="geometry" />
        </mxCell>
        <mxCell id="Pc5RLh0CdUxKufG2swuO-50" value="" style="group;" parent="Pc5RLh0CdUxKufG2swuO-14" vertex="1" connectable="0">
          <mxGeometry x="75" y="177" width="270" height="105" as="geometry" />
        </mxCell>
        <mxCell id="Pc5RLh0CdUxKufG2swuO-19" value="&lt;font&gt;数据库&lt;/font&gt;&lt;div&gt;&lt;font&gt;&amp;nbsp;密码及解密参数&lt;/font&gt;&lt;/div&gt;&lt;div&gt;&lt;font&gt;正确？&lt;/font&gt;&lt;/div&gt;" style="rhombus;whiteSpace=wrap;html=1;rounded=1;strokeColor=default;align=center;verticalAlign=middle;fontFamily=LXGW WenKai Mono;fontSize=10;fontColor=default;fillColor=default;" parent="Pc5RLh0CdUxKufG2swuO-50" vertex="1">
          <mxGeometry x="65" y="-31" width="90" height="50" as="geometry" />
        </mxCell>
        <mxCell id="Pc5RLh0CdUxKufG2swuO-24" value="&lt;span&gt;读group和c2c表的40027列(统计群/QQ号)&lt;/span&gt;" style="rounded=1;whiteSpace=wrap;html=1;fontFamily=LXGW WenKai Mono;fontSize=10;" parent="Pc5RLh0CdUxKufG2swuO-50" vertex="1">
          <mxGeometry x="10" y="45" width="200" height="15" as="geometry" />
        </mxCell>
        <mxCell id="Pc5RLh0CdUxKufG2swuO-58" value="" style="edgeStyle=orthogonalEdgeStyle;rounded=1;orthogonalLoop=1;jettySize=auto;html=1;fontFamily=LXGW WenKai Mono;fontSize=10;fontColor=default;" parent="Pc5RLh0CdUxKufG2swuO-50" source="Pc5RLh0CdUxKufG2swuO-19" target="Pc5RLh0CdUxKufG2swuO-24" edge="1">
          <mxGeometry relative="1" as="geometry" />
        </mxCell>
        <mxCell id="NgZOJPg8MMw1PAeC98eF-0" value="T" style="edgeLabel;html=1;align=center;verticalAlign=middle;resizable=0;points=[];" parent="Pc5RLh0CdUxKufG2swuO-58" vertex="1" connectable="0">
          <mxGeometry x="-0.7246" y="-2" relative="1" as="geometry">
            <mxPoint x="2" y="4" as="offset" />
          </mxGeometry>
        </mxCell>
        <mxCell id="Pc5RLh0CdUxKufG2swuO-54" value="" style="edgeStyle=orthogonalEdgeStyle;rounded=1;orthogonalLoop=1;jettySize=auto;html=1;fontFamily=LXGW WenKai Mono;fontSize=10;fontColor=default;" parent="Pc5RLh0CdUxKufG2swuO-14" source="Pc5RLh0CdUxKufG2swuO-51" target="Pc5RLh0CdUxKufG2swuO-53" edge="1">
          <mxGeometry relative="1" as="geometry" />
        </mxCell>
        <mxCell id="Pc5RLh0CdUxKufG2swuO-51" value="&lt;span&gt;读取解密参数&lt;/span&gt;" style="rounded=1;whiteSpace=wrap;html=1;fontFamily=LXGW WenKai Mono;fontSize=10;" parent="Pc5RLh0CdUxKufG2swuO-14" vertex="1">
          <mxGeometry x="70" y="101" width="40" height="35" as="geometry" />
        </mxCell>
        <mxCell id="Pc5RLh0CdUxKufG2swuO-52" value="" style="edgeStyle=orthogonalEdgeStyle;rounded=1;orthogonalLoop=1;jettySize=auto;html=1;fontFamily=LXGW WenKai Mono;fontSize=10;fontColor=default;" parent="Pc5RLh0CdUxKufG2swuO-14" source="Pc5RLh0CdUxKufG2swuO-43" target="Pc5RLh0CdUxKufG2swuO-51" edge="1">
          <mxGeometry relative="1" as="geometry" />
        </mxCell>
        <mxCell id="Pc5RLh0CdUxKufG2swuO-57" value="" style="edgeStyle=orthogonalEdgeStyle;rounded=1;orthogonalLoop=1;jettySize=auto;html=1;fontFamily=LXGW WenKai Mono;fontSize=10;fontColor=default;" parent="Pc5RLh0CdUxKufG2swuO-14" source="Pc5RLh0CdUxKufG2swuO-53" target="Pc5RLh0CdUxKufG2swuO-19" edge="1">
          <mxGeometry relative="1" as="geometry" />
        </mxCell>
        <mxCell id="Pc5RLh0CdUxKufG2swuO-53" value="&lt;font&gt;尝试解密&lt;/font&gt;" style="rounded=1;whiteSpace=wrap;html=1;fontFamily=LXGW WenKai Mono;fontSize=10;" parent="Pc5RLh0CdUxKufG2swuO-14" vertex="1">
          <mxGeometry x="145" y="108.5" width="80" height="20" as="geometry" />
        </mxCell>
        <mxCell id="Pc5RLh0CdUxKufG2swuO-56" value="" style="edgeStyle=orthogonalEdgeStyle;rounded=1;orthogonalLoop=1;jettySize=auto;html=1;fontFamily=LXGW WenKai Mono;fontSize=10;fontColor=default;entryX=1;entryY=0.5;entryDx=0;entryDy=0;exitX=0.5;exitY=1;exitDx=0;exitDy=0;" parent="Pc5RLh0CdUxKufG2swuO-14" source="NgZOJPg8MMw1PAeC98eF-23" target="Pc5RLh0CdUxKufG2swuO-53" edge="1">
          <mxGeometry relative="1" as="geometry">
            <Array as="points">
              <mxPoint x="305" y="119" />
            </Array>
            <mxPoint x="309.0000000000001" y="77.25" as="sourcePoint" />
          </mxGeometry>
        </mxCell>
        <mxCell id="Pc5RLh0CdUxKufG2swuO-21" value="重新输入密码" style="rounded=1;whiteSpace=wrap;html=1;fontFamily=LXGW WenKai Mono;fontSize=10;fillColor=#f8cecc;strokeColor=#b85450;" parent="Pc5RLh0CdUxKufG2swuO-14" vertex="1">
          <mxGeometry x="30" y="159" width="45" height="24" as="geometry" />
        </mxCell>
        <mxCell id="Pc5RLh0CdUxKufG2swuO-22" style="edgeStyle=orthogonalEdgeStyle;rounded=1;orthogonalLoop=1;jettySize=auto;html=1;entryX=1;entryY=0.5;entryDx=0;entryDy=0;fontFamily=LXGW WenKai Mono;fontSize=10;fontColor=default;exitX=0.035;exitY=0.483;exitDx=0;exitDy=0;exitPerimeter=0;" parent="Pc5RLh0CdUxKufG2swuO-14" source="Pc5RLh0CdUxKufG2swuO-19" target="Pc5RLh0CdUxKufG2swuO-21" edge="1">
          <mxGeometry relative="1" as="geometry" />
        </mxCell>
        <mxCell id="Pc5RLh0CdUxKufG2swuO-23" value="F:密码错误" style="edgeLabel;html=1;align=center;verticalAlign=middle;resizable=0;points=[];rounded=1;strokeColor=default;fontFamily=LXGW WenKai Mono;fontSize=10;fontColor=default;fillColor=default;" parent="Pc5RLh0CdUxKufG2swuO-22" vertex="1" connectable="0">
          <mxGeometry x="-0.3785" relative="1" as="geometry">
            <mxPoint x="-6" y="1" as="offset" />
          </mxGeometry>
        </mxCell>
        <mxCell id="NgZOJPg8MMw1PAeC98eF-12" style="edgeStyle=orthogonalEdgeStyle;rounded=0;orthogonalLoop=1;jettySize=auto;html=1;entryX=0.207;entryY=0.936;entryDx=0;entryDy=0;entryPerimeter=0;" parent="Pc5RLh0CdUxKufG2swuO-14" source="Pc5RLh0CdUxKufG2swuO-21" target="Pc5RLh0CdUxKufG2swuO-53" edge="1">
          <mxGeometry relative="1" as="geometry">
            <Array as="points">
              <mxPoint x="52" y="151" />
              <mxPoint x="162" y="151" />
            </Array>
          </mxGeometry>
        </mxCell>
        <mxCell id="NgZOJPg8MMw1PAeC98eF-22" style="edgeStyle=orthogonalEdgeStyle;rounded=0;orthogonalLoop=1;jettySize=auto;html=1;" parent="Pc5RLh0CdUxKufG2swuO-14" source="NgZOJPg8MMw1PAeC98eF-17" edge="1">
          <mxGeometry relative="1" as="geometry">
            <mxPoint x="184.9999999999999" y="44" as="targetPoint" />
          </mxGeometry>
        </mxCell>
        <mxCell id="NgZOJPg8MMw1PAeC98eF-17" value="&lt;span style=&quot;font-family: &amp;quot;LXGW WenKai Mono&amp;quot;;&quot;&gt;输入密码&lt;/span&gt;" style="shape=parallelogram;perimeter=parallelogramPerimeter;whiteSpace=wrap;html=1;fixedSize=1;size=20;fontSize=11;" parent="Pc5RLh0CdUxKufG2swuO-14" vertex="1">
          <mxGeometry x="130" width="110" height="20" as="geometry" />
        </mxCell>
        <mxCell id="NgZOJPg8MMw1PAeC98eF-32" style="edgeStyle=orthogonalEdgeStyle;rounded=0;orthogonalLoop=1;jettySize=auto;html=1;entryX=0.672;entryY=0.941;entryDx=0;entryDy=0;entryPerimeter=0;" parent="Pc5RLh0CdUxKufG2swuO-14" source="Pc5RLh0CdUxKufG2swuO-19" target="NgZOJPg8MMw1PAeC98eF-23" edge="1">
          <mxGeometry relative="1" as="geometry" />
        </mxCell>
        <mxCell id="NgZOJPg8MMw1PAeC98eF-34" value="F:解密参数错误" style="edgeLabel;html=1;align=center;verticalAlign=middle;resizable=0;points=[];rounded=1;strokeColor=default;fontFamily=LXGW WenKai Mono;fontSize=10;fontColor=default;fillColor=default;" parent="Pc5RLh0CdUxKufG2swuO-14" vertex="1" connectable="0">
          <mxGeometry x="275.0007169095247" y="171.0041373369133" as="geometry" />
        </mxCell>
        <mxCell id="NgZOJPg8MMw1PAeC98eF-38" value="" style="edgeStyle=orthogonalEdgeStyle;rounded=0;orthogonalLoop=1;jettySize=auto;html=1;" parent="WIyWlLk6GJQsqaUBKTNV-1" source="Pc5RLh0CdUxKufG2swuO-66" target="NgZOJPg8MMw1PAeC98eF-37" edge="1">
          <mxGeometry relative="1" as="geometry" />
        </mxCell>
        <mxCell id="Pc5RLh0CdUxKufG2swuO-66" value="首页(动画②)" style="rounded=1;whiteSpace=wrap;html=1;fontFamily=LXGW WenKai Mono;fontSize=13;" parent="WIyWlLk6GJQsqaUBKTNV-1" vertex="1">
          <mxGeometry x="360" y="580" width="80" height="40" as="geometry" />
        </mxCell>
        <mxCell id="Pc5RLh0CdUxKufG2swuO-72" value="" style="edgeStyle=orthogonalEdgeStyle;rounded=1;orthogonalLoop=1;jettySize=auto;html=1;fontFamily=LXGW WenKai Mono;fontSize=12;fontColor=default;" parent="WIyWlLk6GJQsqaUBKTNV-1" source="Pc5RLh0CdUxKufG2swuO-69" target="Pc5RLh0CdUxKufG2swuO-71" edge="1">
          <mxGeometry relative="1" as="geometry" />
        </mxCell>
        <mxCell id="Pc5RLh0CdUxKufG2swuO-69" value="配置相关参数&lt;div&gt;&lt;sub&gt;ep：图片目录&lt;/sub&gt;&lt;/div&gt;" style="rounded=1;whiteSpace=wrap;html=1;fontFamily=LXGW WenKai Mono;fontSize=13;" parent="WIyWlLk6GJQsqaUBKTNV-1" vertex="1">
          <mxGeometry x="230" y="165" width="80" height="40" as="geometry" />
        </mxCell>
        <mxCell id="GmvvtTthRvTWWS6kZ8ih-1" style="edgeStyle=orthogonalEdgeStyle;rounded=0;orthogonalLoop=1;jettySize=auto;html=1;entryX=0;entryY=0.5;entryDx=0;entryDy=0;" edge="1" parent="WIyWlLk6GJQsqaUBKTNV-1" source="Pc5RLh0CdUxKufG2swuO-71" target="Pc5RLh0CdUxKufG2swuO-11">
          <mxGeometry relative="1" as="geometry" />
        </mxCell>
        <mxCell id="Pc5RLh0CdUxKufG2swuO-71" value="读取nt_msg.db路径" style="rounded=1;whiteSpace=wrap;html=1;fontFamily=LXGW WenKai Mono;fontSize=13;" parent="WIyWlLk6GJQsqaUBKTNV-1" vertex="1">
          <mxGeometry x="225" y="255" width="90" height="40" as="geometry" />
        </mxCell>
        <mxCell id="NgZOJPg8MMw1PAeC98eF-3" value="" style="edgeStyle=orthogonalEdgeStyle;rounded=0;orthogonalLoop=1;jettySize=auto;html=1;" parent="WIyWlLk6GJQsqaUBKTNV-1" source="Pc5RLh0CdUxKufG2swuO-24" target="Pc5RLh0CdUxKufG2swuO-66" edge="1">
          <mxGeometry relative="1" as="geometry" />
        </mxCell>
        <mxCell id="NgZOJPg8MMw1PAeC98eF-7" value="" style="edgeStyle=orthogonalEdgeStyle;rounded=0;orthogonalLoop=1;jettySize=auto;html=1;" parent="WIyWlLk6GJQsqaUBKTNV-1" source="NgZOJPg8MMw1PAeC98eF-5" target="Pc5RLh0CdUxKufG2swuO-7" edge="1">
          <mxGeometry relative="1" as="geometry" />
        </mxCell>
        <mxCell id="NgZOJPg8MMw1PAeC98eF-5" value="&lt;span style=&quot;font-family: &amp;quot;LXGW WenKai Mono&amp;quot;; font-size: 13px;&quot;&gt;选择文件&lt;/span&gt;" style="shape=parallelogram;perimeter=parallelogramPerimeter;whiteSpace=wrap;html=1;fixedSize=1;size=20;" parent="WIyWlLk6GJQsqaUBKTNV-1" vertex="1">
          <mxGeometry x="345" y="80" width="110" height="30" as="geometry" />
        </mxCell>
        <mxCell id="NgZOJPg8MMw1PAeC98eF-41" value="" style="edgeStyle=orthogonalEdgeStyle;rounded=0;orthogonalLoop=1;jettySize=auto;html=1;" parent="WIyWlLk6GJQsqaUBKTNV-1" source="NgZOJPg8MMw1PAeC98eF-37" target="NgZOJPg8MMw1PAeC98eF-39" edge="1">
          <mxGeometry relative="1" as="geometry" />
        </mxCell>
        <mxCell id="NgZOJPg8MMw1PAeC98eF-43" value="群" style="edgeLabel;html=1;align=center;verticalAlign=middle;resizable=0;points=[];fontFamily=LXGW WenKai Mono;" parent="NgZOJPg8MMw1PAeC98eF-41" vertex="1" connectable="0">
          <mxGeometry x="0.0229" y="1" relative="1" as="geometry">
            <mxPoint as="offset" />
          </mxGeometry>
        </mxCell>
        <mxCell id="NgZOJPg8MMw1PAeC98eF-42" value="" style="edgeStyle=orthogonalEdgeStyle;rounded=0;orthogonalLoop=1;jettySize=auto;html=1;" parent="WIyWlLk6GJQsqaUBKTNV-1" source="NgZOJPg8MMw1PAeC98eF-37" target="NgZOJPg8MMw1PAeC98eF-40" edge="1">
          <mxGeometry relative="1" as="geometry" />
        </mxCell>
        <mxCell id="NgZOJPg8MMw1PAeC98eF-45" value="人" style="edgeLabel;html=1;align=center;verticalAlign=middle;resizable=0;points=[];fontFamily=LXGW WenKai Mono;" parent="NgZOJPg8MMw1PAeC98eF-42" vertex="1" connectable="0">
          <mxGeometry x="0.2973" relative="1" as="geometry">
            <mxPoint as="offset" />
          </mxGeometry>
        </mxCell>
        <mxCell id="NgZOJPg8MMw1PAeC98eF-37" value="选择群/人" style="rhombus;whiteSpace=wrap;html=1;rounded=1;strokeColor=default;align=center;verticalAlign=middle;fontFamily=LXGW WenKai Mono;fontSize=12;fontColor=default;fillColor=default;" parent="WIyWlLk6GJQsqaUBKTNV-1" vertex="1">
          <mxGeometry x="360" y="640" width="80" height="50" as="geometry" />
        </mxCell>
        <mxCell id="NgZOJPg8MMw1PAeC98eF-39" value="跳转&lt;div&gt;&lt;font style=&quot;font-size: 7px;&quot;&gt;&lt;span style=&quot;font-family: &amp;quot;JetBrains Mono&amp;quot;, &amp;quot;LXGW WenKai Mono&amp;quot;, Consolas, &amp;quot;Courier New&amp;quot;, monospace, Consolas, &amp;quot;Courier New&amp;quot;, monospace; white-space: pre; color: rgb(68, 140, 39);&quot;&gt;/group/&lt;/span&gt;&lt;span style=&quot;font-family: &amp;quot;JetBrains Mono&amp;quot;, &amp;quot;LXGW WenKai Mono&amp;quot;, Consolas, &amp;quot;Courier New&amp;quot;, monospace, Consolas, &amp;quot;Courier New&amp;quot;, monospace; white-space: pre; color: rgb(156, 93, 39);&quot;&gt;{group_id}&lt;/span&gt;&lt;/font&gt;&lt;/div&gt;" style="rounded=1;whiteSpace=wrap;html=1;fontFamily=LXGW WenKai Mono;fontSize=13;" parent="WIyWlLk6GJQsqaUBKTNV-1" vertex="1">
          <mxGeometry x="250" y="645" width="80" height="40" as="geometry" />
        </mxCell>
        <mxCell id="NgZOJPg8MMw1PAeC98eF-40" value="跳转&lt;div&gt;&lt;span style=&quot;font-size: 7px; font-family: &amp;quot;JetBrains Mono&amp;quot;, &amp;quot;LXGW WenKai Mono&amp;quot;, Consolas, &amp;quot;Courier New&amp;quot;, monospace, Consolas, &amp;quot;Courier New&amp;quot;, monospace; white-space: pre; color: rgb(68, 140, 39);&quot;&gt;/c2c/&lt;/span&gt;&lt;span style=&quot;font-size: 7px; font-family: &amp;quot;JetBrains Mono&amp;quot;, &amp;quot;LXGW WenKai Mono&amp;quot;, Consolas, &amp;quot;Courier New&amp;quot;, monospace, Consolas, &amp;quot;Courier New&amp;quot;, monospace; white-space: pre; color: rgb(156, 93, 39);&quot;&gt;{c2c_uin}&lt;/span&gt;&lt;br&gt;&lt;/div&gt;" style="rounded=1;whiteSpace=wrap;html=1;fontFamily=LXGW WenKai Mono;fontSize=13;" parent="WIyWlLk6GJQsqaUBKTNV-1" vertex="1">
          <mxGeometry x="470" y="645" width="80" height="40" as="geometry" />
        </mxCell>
      </root>
    </mxGraphModel>
  </diagram>
</mxfile>
